<?xml version="1.0" encoding="utf-8"?>
<!-- Generator: Adobe Illustrator 25.1.0, SVG Export Plug-In . SVG Version: 6.00 Build 0)  -->
<svg version="1.1" id="Layer_1" xmlns="http://www.w3.org/2000/svg" xmlns:xlink="http://www.w3.org/1999/xlink" x="0px" y="0px"
	 viewBox="0 0 500 500" style="enable-background:new 0 0 500 500;" xml:space="preserve">
<style type="text/css">
	.st0{fill:#BEE5EB;}
	.st1{fill:#FFFFFF;}
	.st2{fill:#274D76;}
	.st3{fill:#FFF3A1;}
	.st4{fill:#F2BDBA;}
	.st5{fill:#93B4F6;}
	.st6{fill:#74BAAB;}
</style>
<g>
	<g>
		<circle class="st0" cx="256.3" cy="237" r="220.3"/>
	</g>
</g>
<path class="st1" d="M64.6,190.2l-1.1-0.2c0.1-0.3,6.1-34.1,29.5-60l0.9,0.8C70.7,156.4,64.7,189.8,64.6,190.2z"/>
<path class="st1" d="M96.5,108.5l-1-0.7c0.2-0.3,18.9-27.5,49-40.7l0.5,1.1C115.3,81.3,96.7,108.3,96.5,108.5z"/>
<path class="st1" d="M463.8,233h-1.2c0-41.9-19-79.9-19.2-80.2l1-0.5C444.6,152.6,463.8,190.8,463.8,233z"/>
<path class="st1" d="M441,211.2c-0.9-16.7-6.3-30.7-6.4-30.9l1.1-0.4c0.1,0.1,5.6,14.4,6.5,31.2L441,211.2z"/>
<g>
	<path d="M28,182.2l-1.1-0.2c0.1-0.3,7.4-33.9,33.3-67.9l0.9,0.7C35.4,148.5,28.1,181.9,28,182.2z"/>
	<path d="M64.5,88.3l-0.9-0.7c0.1-0.1,6.9-8.2,15.6-16.5l0.8,0.8C71.4,80.1,64.6,88.2,64.5,88.3z"/>
	<path d="M93.4,71.9l-0.9-0.8c0.1-0.1,10.1-11.7,29.2-24.7c17.6-12,46.8-27.8,85.8-34.7l0.2,1.1c-38.8,6.9-67.8,22.6-85.3,34.5
		C103.4,60.3,93.4,71.8,93.4,71.9z"/>
	<path d="M476.1,161.9c-9.8-40-41-74.6-41.3-75l0.9-0.8c0.3,0.3,31.7,35.1,41.6,75.5L476.1,161.9z"/>
	<path d="M484.7,220.2c-1.2-14.6-3.9-27.3-6.1-35.4l1.1-0.3c2.1,8.2,4.9,21,6.1,35.6L484.7,220.2z"/>
	<path d="M491,275.3l-1.1-0.3c1-4.3,1.9-9.1,2.6-14l1.2,0.2C492.9,266.1,492.1,270.9,491,275.3z"/>
	<path d="M495.8,239.3l-1.2-0.1c0.9-16.8,0.1-33-2-40.3l1.1-0.3C495.9,206,496.8,222.4,495.8,239.3z"/>
	<path d="M477.5,292.5l-1.1-0.4c2-6.4,3.8-15.2,5.2-26.4l1.2,0.1C481.3,277.1,479.5,286.1,477.5,292.5z"/>
	<path d="M483.7,256.2l-1.2-0.1c0.4-4.6,0.6-7.7,0.6-7.7l1.2,0.1C484.3,248.5,484.2,251.6,483.7,256.2z"/>
	<path d="M365.5,36.2c-30.6-19.5-81.8-26.2-82.3-26.2l0.1-1.2c0.1,0,13.1,1.7,29.7,5.8c15.3,3.8,37,10.4,53.1,20.6L365.5,36.2z"/>
	<path d="M340,15.3c-8.2-3.6-27.3-7.9-27.5-8l0.3-1.1c0.2,0,19.4,4.4,27.7,8L340,15.3z"/>
	<path d="M91.7,405.5c-2.5-2-4.9-4-7.3-6.1l0.8-0.9c2.3,2.1,4.8,4.1,7.2,6L91.7,405.5z"/>
	<path d="M72,387.1c-33.5-36.5-39.9-76.3-39.9-76.7l1.2-0.2c0.1,0.4,6.4,39.9,39.6,76.1L72,387.1z"/>
	<path d="M81.1,384.1c-12-9.9-23.2-32.4-23.3-32.6l1-0.5c0.1,0.2,11.2,22.5,23,32.3L81.1,384.1z"/>
	<path d="M197.1,459.1c-17-3.3-33.8-9-50-17.2l0.5-1c16.1,8.1,32.8,13.9,49.7,17.1L197.1,459.1z"/>
	<path d="M126.5,429.8c-8.4-5.6-13.1-9.8-13.1-9.8l0.8-0.9c0,0,4.7,4.2,13,9.7L126.5,429.8z"/>
	<path d="M266.8,471.3l-0.1-1.2c4.3-0.2,8.5-0.5,12.6-1l0.1,1.2C275.4,470.8,271.2,471.1,266.8,471.3z"/>
	<path d="M251.5,471.6c-26.7-0.3-49.1-4.3-49.3-4.3l0.2-1.1c0.2,0,22.5,4,49.1,4.3L251.5,471.6z"/>
</g>
<path class="st1" d="M123.8,395c-36.8-25.8-50.4-66.8-50.5-67.2l1.1-0.4c0.1,0.4,13.6,41,50.1,66.6L123.8,395z"/>
<path class="st1" d="M204.3,439.7c-28.9-5.1-57.8-24.4-58.1-24.6l0.7-1c0.3,0.2,29,19.4,57.7,24.4L204.3,439.7z"/>
<path class="st1" d="M156.8,404.6c-7.7-2.4-17-11-17.4-11.4l0.8-0.9c0.1,0.1,9.5,8.8,16.9,11.1L156.8,404.6z"/>
<g id="Astro">
	<g>
		<path class="st1" d="M295,48.3c-5.9,3.6-31.4,18.5-49.8,32.5c-2.9,2.2-5.1,5.3-6.3,8.8c-2.4,7.3-4.5,15.4-5.1,17.7
			c-0.1,0.5-0.1,1.1,0.2,1.6c1.7,3,11.2,13.5,62.6,31.7l12.1-26.1c0,0-7.6-48.6-10-64.8C298.5,48.1,296.6,47.3,295,48.3z"/>
	</g>
	<g>
		<path class="st2" d="M411.2,340.3l-63.3,7.4c-10.3,1.2-19.2,7.5-23.9,16.7l-28.3,56.9c-1.2,2.4-3.9,3.7-6.5,3.1l-10.1-2.2
			c-7.1-1.6-14.1,2.6-16.1,9.6l-1.6,5.4c-0.9,3,0.5,6.2,3.3,7.7l46.5,24.1c3.1,1.6,6.9,0.5,8.7-2.4l46.7-76.1l64.6-4.1L411.2,340.3z
			"/>
	</g>
	<g>
		<polygon class="st2" points="375.3,291.6 379.9,280.1 418.1,282.1 404.3,334.5 		"/>
	</g>
	<g>
		<path class="st2" d="M370.5,263.7c0,0,4.2-10.9,4.1-16.8c-0.1-7.9,0.8-23.8-4.2-23.1c-3,0.5-4,7.8-4.3,11
			c-0.1,1.3-0.6,2.5-1.5,3.4c-1.2,1.3-2.9,1.9-3.8-4.2c-1.5-10-1.1-29.1-6.9-25.6c-2.9,1.8-1.4,19.2-3,18.4
			c-1.7-0.8-1.5-27-8.5-24.2c-2.3,0.9-1.8,13.5-1.3,20.5c0,0.4-0.5,0.5-0.6,0.1c-1-4.2-2.4-10.4-3.6-14c-1.3-3.9-4.2-1.9-4.2,1
			c0,6.1,1,19,1,19L370.5,263.7z"/>
	</g>
	<g>
		<path class="st3" d="M468.5,298.5l10.5,18.1l-24.5,78.8c-2.3,8-11.4,13-19.6,11.6l-31.6-3.5c-4.1-0.7-5.5,1.4-4.1,5.3l13.6,62.5
			c2.3,6.3-1.3,13.2-7.7,14.9l-47,12.5c-4.5,1.2-9.1-2-9.5-6.6L346,476c-0.1-1.2-0.5-6.2,2.3-8.2c4.1-2.9,10.5-7,10.5-7
			c2.2-1.2,2.4-4.6,1.8-7l-17.8-69.4c-2.9-10.9,3.8-19.3,14.9-21.1c14-2.3,37.4-7.6,37.4-7.6l10-65.2c1.3-5.2,6.1-8.7,11.4-8.5
			l15.3,0.7L468.5,298.5z"/>
	</g>
	<g>
		<g>
			
				<ellipse transform="matrix(0.2298 -0.9732 0.9732 0.2298 69.1683 638.6009)" class="st3" cx="438.1" cy="275.6" rx="25.1" ry="25.1"/>
		</g>
	</g>
	<g>
		<path class="st1" d="M209.9,275.3l83.5-75.5c4.3-3.9,10.6-3.6,15.7-0.8c10.3,5.6,28,15.7,43.8,32.8c13.3,14.4,35.3,37.2,37.9,56.5
			c0.3,2.2-0.5,4.4-2,6c-25.5,26.4-77.3,75-83,79.9c-13.7,11.7-49.2-14.7-69.5-38.2C227.8,326.1,199.3,285.2,209.9,275.3z"/>
	</g>
	<g>
		<g>
			<path class="st3" d="M481.9,303.1c-7.8-7.6-21-7.2-29.2-0.2l-29,26.4c-1.6,1.3-3.9,1.1-5.3-0.5l-20.5-24
				c-3.3-3.9-5.3-8.7-5.7-13.7l-0.7-9.1c-0.1-0.6-0.2-1.2-0.4-1.8l-3.7-9.6c-0.5-1.3-2.3-1.5-3.1-0.3c-1.1,1.6-1.6,4.1-1.6,6.5
				c0,4.7,1.1,9.7-0.7,9.7c-2.3,0-5.1-4.6-6.3-8.9c-1.4-5-2-8.9-4.4-11.1c-1.1-1-3-0.3-3.3,1.3c-0.7,3.8,0.1,11,0.2,15
				c0,1.2-1,1.1-1.3-0.3c-1-4.4-3.7-17.8-3.7-17.8c-0.4-1.8-2.9-2-3.6-0.3c-2,4.8-1.3,15.3-0.9,19.2c0,0.3-0.4,0.5-0.6,0.2
				c-1-1.8-2.7-5.4-3.9-10c-0.3-1-1.7-1.2-2.2-0.3c-1.5,2.8-0.8,9.4-0.3,12.2c0,0.3-0.3,0.4-0.4,0.2c-0.7-1.2-1.2-2.3-1.7-3.6
				c-0.7-1.7-2.1-0.7-2.2,0.4c-0.4,3.7-0.6,8.9,0.9,15.7c0.6,2.4,2.6,9.7,11.8,20.7l49,54.3c8.8,11.1,20,8.2,26.3,3.5
				c15.8-11.7,44.9-40.4,44.9-40.4C491.1,327,488.8,310,481.9,303.1z"/>
		</g>
	</g>
	<g>
		<path class="st4" d="M262.7,320.3c-29.3-31.3-44.6-40.4-52-41.2c-1.7-0.2-3.1,1.1-3.1,2.8c0.1,15.3,21.6,45.7,28.7,54
			c16.3,19,42.6,39.8,59.3,41c1.3,0.1,2.3-1,2.2-2.3C296.7,365.7,289.7,349.2,262.7,320.3z"/>
	</g>
	<g>
		<path class="st4" d="M234.3,109.4c2.3,5.6,28.9,22.7,62.3,31.3l1-2.1c-13-11.4-35.3-22.7-52-27
			C239.5,109.9,236.2,109.2,234.3,109.4z"/>
	</g>
	<path d="M298.2,59.5c-3.1-2.6-6.7-4.2-10.8-5l0.2-1.1c4.3,0.8,8.1,2.6,11.3,5.3L298.2,59.5z"/>
	<g>
		<g>
			<g>
				<path class="st5" d="M342.8,253.1l-12.4-10.3c-1.9-1.6-4.5-2.4-7-2.1c-10,1.2-36.2,4.7-45,9.5c-3.3,1.8-10.3,9.6-10.3,9.6
					c-2.6,2.6-2.6,6.8,0,9.5l16.1,17.8c1.1,1.2,3,1.4,4.3,0.3l12.8-10.5c1.4-1.1,1.5-3.2,0.3-4.5l-2.6-2.8c-1-1-0.6-2.7,0.8-3
					l41.8-9C343.8,257.1,344.5,254.5,342.8,253.1z M323.6,271.2c-2-1.4-4.5-1.5-6.4,0l-38.8,32c-2.3,1.9-2.5,6.6-0.5,8.9
					c1.5,1.8,4.6,5.3,6.1,7.2c2.8,3.4,7.3,3.5,9.6,1.4l10.5-9.5c1-0.9,2.4-0.8,3.3,0.1l2.2,2.4c1.6,1.6,4.2,1.7,5.8,0.2l11.6-10.7
					c2.2-2,2.2-5.5,0-7.5l-1.1-1c-1-0.9-1-2.5,0-3.4l5.3-4.9c2-1.8,2.7-5.9,0.2-8.2C331.5,278.2,326.2,273.1,323.6,271.2z"/>
			</g>
		</g>
	</g>
	<g>
		<path d="M239,112.5c7.4,5.8,26.6,16.3,50.4,24l0.8-1.6c-9.8-8.3-32.2-18.7-50.7-23.4C238.9,111.4,238.5,112.1,239,112.5z"/>
	</g>
	<g>
		<path d="M212.5,285.2c3.3-4.2,32.8,23.3,42.8,33.5c17.1,17.4,42,51.2,36,52.8c-3.7,1-26.8-11.9-51.2-39.5
			C221.7,311,210.5,287.8,212.5,285.2z"/>
	</g>
	<g>
		<path class="st2" d="M409.6,41.7l-0.9-5.2c-0.7-4.4-5-6.5-9.2-5c-5.5,1.9-12.5,4.2-16.4,7.2c-1.5,1.2-2.4,3.1-2.2,5
			c1.4,17.1,3,30.4,3.8,36.2c0.3,2.1-0.4,4.2-1.9,5.7l-17,17.7l17.3,8.8l32.4-30.1L409.6,41.7z"/>
	</g>
	<g>
		<path class="st3" d="M296.6,140.6l12.4-26.7c2.1-4.6,6.7-7.7,11.7-8l25.6-1.4c6.3-0.4,12.4-2.2,17.9-5.3l0,0
			c4.5-2.6,10-2.6,14.5,0.1l0,0c2.9,1.7,6.6,1.4,9.2-0.8l9.3-7.9c1.1-0.9,1.6-2.3,1.5-3.6c-0.5-7.4-2-31.8-2.2-43.7
			c0-1.7,0.9-3.2,2.4-3.9c6.2-3,15.8-4.5,23.2-3.2c1.8,0.3,3.3,1.8,3.4,3.7c0.5,8.1-5,16.8-5,16.8l4.9,36.6c1.1,8.1-2.4,16.1-9,20.9
			l-30.8,22.3c-2.3,1.7-4.8,3.3-7.3,4.7l0,0c-6,3.4-12.3,6-19,7.7l-23.6,6.2L296.6,140.6z"/>
	</g>
	<g>
		<polygon class="st2" points="307.2,116.6 321.5,114.4 332.7,126.3 311.1,146.8 299.7,133.9 		"/>
	</g>
	<g>
		<g>
			
				<ellipse transform="matrix(0.2529 -0.9675 0.9675 0.2529 139.7737 390.6703)" class="st3" cx="322.8" cy="104.8" rx="20.1" ry="20.1"/>
		</g>
	</g>
	<g>
		<g>
			<g>
				<path class="st5" d="M271.4,97.5l3.8-5.9c0.6-1,0.3-2.3-0.8-2.8l-1.6-0.7c-1-0.4-1.1-1.7-0.2-2.3l17-11.8
					c0.9-0.6,0.7-1.9-0.3-2.2l-7.8-2.6c-0.9-0.3-1.9-0.2-2.7,0.4L262,80.6c-1,0.7-1.9,1.6-2.4,2.7l-2.3,4.6
					c-1.2,2.3-0.2,5.1,2.2,6.2l9.6,4.1C269.9,98.6,270.9,98.3,271.4,97.5z M291.5,94.9l-0.9-0.5c-0.8-0.5-1.1-1.5-0.7-2.3l1.1-2.5
					c0.7-1.5,0.1-3.2-1.3-4l-3.8-2.1c-1.5-0.8-3.4-0.3-4.2,1.2l-11.6,21.1c-0.8,1.4-0.3,3.2,1,4.1l4.1,2.8c1.5,1,3.6,0.5,4.5-1.1
					l3.3-6.1c0.5-0.9,1.6-1.2,2.5-0.7l0.5,0.3c1,0.6,2.3,0.2,2.8-0.8l3.4-6.8C292.7,96.6,292.4,95.4,291.5,94.9z"/>
			</g>
		</g>
	</g>
	<g>
		<g>
			<path class="st3" d="M357.2,114.9L357.2,114.9c-5.6-5-14.2-4.7-19.4,0.7l-15.6,16c-1.2,1.2-3,1.7-4.7,1.3l-23.2-6.1
				c-1.6-0.4-3.1-1.3-4.2-2.5l-6.7-7.1c-0.6-0.6-1.6-0.5-1.9,0.2c-0.4,0.7-0.6,2-0.2,3.9c0.8,4.4-1.7,4.4-4.3,2.3
				c-1.3-1.1-3.4-2.7-5.1-4.1c-1.3-1-3.2-0.1-3.2,1.5c0,2,0.3,4.3,1.4,5.6c-2.3,7,1.6,15.4,7.8,18.8c7.2,3.9,46,15.9,46,15.9
				c3.8,1.1,7.9,0.1,10.6-2.7l23.2-23.3C363.5,129.6,363.2,120.3,357.2,114.9z"/>
		</g>
	</g>
	<g>
		<g>
			<path d="M310.7,91.5c-2.5,1.8-4.4,4.4-5.6,7.5c-2.6,7-0.1,14.5,5.3,18.9c2.9,2.4,7.4,3,11.9,0.2c2.9-1.8,5.1-4.7,6.4-8.1
				c2.2-6,0.7-12.2-3.3-16.7C322.2,89.8,314.9,88.5,310.7,91.5z"/>
		</g>
	</g>
	<g>
		<path class="st1" d="M165.3,317.6c-2.2-8.5-4.7-19.4-6-23.2c-0.1-0.1-0.2-0.5-0.4-0.6c-1.2-0.8-8.1-4.1-16-2.7
			c-2.5,0.4-10.9-0.4-14.3,2.2c-1.1,0.8-1.4,2.1-1.5,3.4c-0.5,7.1-1.7,29-1.5,36.3c0,1.3,0.9,2.5,2.2,2.8c14.4,2.9,31.1,1.6,38.5-4
			c0.8-0.6,1.3-1.6,1.2-2.6C167.4,327.2,166.8,323.3,165.3,317.6z"/>
	</g>
	<g>
		<path class="st2" d="M83.3,260.9l-23.7-7.4c-1.2-0.4-2-1.6-1.8-2.9l3.7-25.6c0.3-1.8-1-3.5-2.8-3.7L43.7,219
			c-0.7-0.1-2.2,0.4-2.2,2.4c0,1,0.3,1.5,0.8,2.1l2.7,3.2c0.5,0.6,0.7,1.4,0.6,2.2l-3.2,19.6l10.9,23.1l26.4,2.8L83.3,260.9z"/>
	</g>
	<g>
		<path class="st3" d="M36.4,227.8L57,260.3c0.6,0.9,1.4,1.5,2.5,1.7l4.6,1c1.5,0.3,3.1,0.1,4.5-0.7l1.8-1.1
			c3.5-2.2,7.9-2.7,11.8-1.4l28.3,9.2l-8.3,25.8L74.3,288c-2.4-0.6-4.8-1.3-7.1-2.2c-3.5-1.3-8.6-3.2-11.7-4.7
			c-8-3.9-10.6-7-11.9-9.4c-4.1-7.8-14.4-25.3-15.7-27.4c-1.7-2.7-5.4-2.9-7.3-3.4c-1.2-0.3-2.1-0.8-2.6-2l-0.3-0.6
			c-0.3-0.7-0.1-1.5,0.6-1.9l13.6-9.5C33.4,225.8,35.4,226.3,36.4,227.8z"/>
	</g>
	<g>
		<path class="st2" d="M123.1,286.7l25,0c2,0,4.1,0.6,5.2,1.8c0.6,0.7,1.8,2.3,2.4,3.1c0.4,0.5,0.3,1.2-0.3,1.1l-3-1.1l0.5,1.9
			c0.4,1-0.5,1.5-1.3,1.1l-3-1.4l0,0c0.1,0.8-0.8,1.4-1.6,1c-1.4-0.7-1.9-1.2-3.8-2.5c-0.5-0.3-1-0.5-1.6-0.5
			c-5.1,0.3-8.8,0.9-11.9,2.2c-2.3,1-2.4,3.4-2.4,4.1c-0.1,1.3-1.8,5.1-1.8,5.1l-16.3-3.3l-2.9-10.8L123.1,286.7z"/>
	</g>
	<g>
		<g>
			<ellipse class="st3" cx="113.6" cy="276.2" rx="12.8" ry="13.4"/>
		</g>
	</g>
	<g>
		<path class="st1" d="M119.2,307.8c0,0-7.9,13.9-9.1,22.2c-0.4,2.6,1.6,5.1,4.2,5.4c2.4,0.3,6,0.4,11.5,0c-0.8-2.5,1-24.5,1.8-33.4
			c0.1-1.2-1.4-1.8-2.2-1L119.2,307.8z"/>
	</g>
	<g>
		<path class="st1" d="M146.1,301.1c1.7,3.5,8.1,16.9,9.4,22.3c0.2,0.7-0.4,1.3-1,1.3c-6.2-0.4-12.2,0.5-14.8,1
			c-0.7,0.1-1.2-0.4-1.2-1.1l1.7-21.5c0-0.4,0.3-0.7,0.6-0.9l4-1.6C145.3,300.4,145.8,300.6,146.1,301.1z"/>
	</g>
	<path class="st5" d="M154,319.1c-2.9-7.5-8.4-18.8-8.4-18.8l-1.3,0.5l6.1,23.8c1.7,0,3.5,0.1,5.2,0.3
		C155.7,323.7,155,321.6,154,319.1"/>
	<g>
		<path class="st2" d="M155.7,324.8c0-0.1-4.7-3.9-4.7-3.9c-0.8-0.6-1.9-0.7-2.8-0.2l-9.2,5C141.3,325.3,148.5,324.1,155.7,324.8z"
			/>
	</g>
	<g>
		<path d="M109.2,280.1c-0.2,2.3,0.3,4.5,1.3,6.4c0.7,1.2,2,2,3.4,2c0,0,0,0,0,0c6.4,0,11.6-5.4,11.6-12c0,0,0,0,0,0
			c0-2.8-2-5.2-4.7-5.6c-0.8-0.1-1.7-0.2-2.5-0.1C113.6,271.1,109.7,275.2,109.2,280.1z"/>
	</g>
	<g>
		<path class="st3" d="M150.6,302.8l-2.8,0.3c-0.2,0-0.3-0.3-0.2-0.4l2.3-1.7c0.9-0.7,0.4-2.1-0.8-2c-2.5,0.2-5.7,0.5-8,0.7
			c-0.4,0-0.5-0.5-0.2-0.7c1-0.6,1.6-0.9,2.6-1.5c1.5-0.9,0-2.1-1.7-2c-3.3,0.1-6.6,2.1-9.1,2.1c-4.5,0-17-0.6-17-0.6
			c-1,0-1.9-0.5-2.5-1.4l-10.1-15c-2.8-3.7-8.2-4.4-11.9-1.5c-3.5,2.7-4.3,7.8-1.7,11.4l14.8,19c1.4,1.8,3.5,2.8,5.7,2.9l32.3-0.5
			c3.9,0,6.6-3.5,6.9-5.3c1-0.7,1.7-1.4,2.2-2.1C152.2,303.8,151.6,302.7,150.6,302.8z"/>
	</g>
	<g>
		<path class="st1" d="M110.8,164.7c0,0,2.7,10.3,9.7,24.3c9.8,19.8,14.6,27.7,19.6,36.2c6.1,10.4,24.9,20.9,61.1-1.6
			c37.5-23.2,31.8-38.5,29.3-43.8c-1.5-3.2-13.4-25.5-23.3-42.4c-3.9-6.6-7.5-12.3-9.9-15.9c-2-3-5.3-5-8.9-5.4
			c-9.9-1.1-30.8-1-52.2,14.6C106.5,152.2,110.8,164.7,110.8,164.7z"/>
	</g>
	<g>
		<path class="st4" d="M232,191.2c1-5-1.2-10.1-5.3-13c-10.6-7.3-31.4-7.6-57.8,9c-29,18.3-29.6,33.8-25.3,42.3
			c8.4,8.3,26.6,13.3,57.6-5.9C223.4,209.9,230.4,198.9,232,191.2z"/>
	</g>
	<g>
		<path d="M149,229c-3.6-5.2-3.7-21.3,23.4-38.7c27.2-17.5,51.1-12.5,54.7-3.1c3.5,9.4-16.1,26.8-37.9,37.8
			C169.4,235.1,153,234.7,149,229z"/>
	</g>
	<g>
		<path d="M125.6,331.5c-2.4,0-4.9,0.1-7.4,0.3c-5.6,0.4-6.4,2.2-5.9,2.8c0.5,0.5,1.2,0.8,2,0.9c2.4,0.3,7.2,0.4,12.4-0.2
			C125.6,334.1,125.6,333.4,125.6,331.5z"/>
	</g>
	<g>
		<path class="st1" d="M165.2,296.8c-1.7-2.1-2.6-1.8-5.7-1.9c1.3,4.5,3.6,14,5.9,22.7c2.3,8.7,2.3,13.1,2.3,13.1
			c2.9-0.4,5.2-0.8,10.8-1.7c4.6-0.8,5-4.6,2.6-8.1L165.2,296.8z"/>
	</g>
	<g>
		<path class="st4" d="M165.4,332.5c0.3-0.8-0.2-1.7-1.6-2.3c-2.7-1.4-8.1-2.4-18.5-1.8c-9.6,0.5-14.4,2.9-16.9,5
			c-1.3,1.1-1.2,2-0.1,2.7C142.8,339.5,157.7,337.5,165.4,332.5z"/>
	</g>
	<g>
		<path d="M179,329.1c1.2-0.3,1.3-1.5,0.7-2c-0.3-0.2-0.6-0.4-0.9-0.6c-2.8-1.5-7.4-1.4-11.7-0.9c0.5,3.4,0.6,4.2,0,5.3
			C170.6,330.7,178.7,329.2,179,329.1z"/>
	</g>
	<g>
		<g>
			<g>
				<path class="st5" d="M145.4,161.3c-1.7-4.3-1.8-9,0.3-12.2c0.5-0.7,1.3-1.9,0.9-2.7l-3.8-5.5c-0.8-1.4-2.9-0.5-3.8,0.8
					c-4.7,6.3-6.4,14.6-2.9,23.3c5.1,12.9,14.7,16.7,24.5,14.3c1.6-0.4,2.4-2.2,1.5-3.6l-2.9-4.8c-0.6-1.1-1.8-1.7-3.1-1.6
					C151.8,169.8,147.6,167,145.4,161.3z M173.4,146c-7.4-11.8-19.3-13.6-27-10.6c-1.4,0.5-2,2.1-1.2,3.3l4.2,5.7
					c0.5,0.9,1.5,1.3,2.5,1.1c4.1-0.8,9.2,0.8,12.6,5.9c2.7,4,2.6,10.3-1.6,14.3c-0.9,0.9-0.8,2.4-0.2,3.5l2.7,4.7
					c1.1,1.8,3.5,2,5.1,0.7C178,168.2,178.6,154.3,173.4,146z"/>
			</g>
		</g>
	</g>
	<path d="M340.1,145.2c-0.4,0-0.8-0.1-1.2-0.3c-2.9-1.7-8-4.9-10.4-7.9c-0.7-0.9-0.7-2.1,0.1-3l0,0l7.6-9.1c0.8-1,2.2-1.1,3.2-0.4
		c2.4,1.8,6.7,5,9,7.1c0.9,0.8,1.1,2.2,0.3,3.2c-2.6,3.6-5.3,7.5-6.6,9.4C341.6,144.8,340.9,145.2,340.1,145.2z M337.9,125.2
		c-0.3,0-0.7,0.1-0.9,0.4l-7.6,9.1c-0.4,0.4-0.4,1.1,0,1.5c2.4,3,7.9,6.4,10.1,7.7c0.5,0.3,1.2,0.2,1.6-0.4c1.3-2,4-5.9,6.7-9.5
		c0.4-0.5,0.3-1.2-0.2-1.6c-2.3-2-6.6-5.3-8.9-7C338.4,125.2,338.2,125.2,337.9,125.2z"/>
	<path d="M450.4,353c-0.1,0-0.3,0-0.4,0c-1.2-0.1-2.3-0.7-3.1-1.7l-12.6-15.6c-1.5-1.9-1.3-4.6,0.5-6.2l13.9-12.6
		c0.9-0.8,2.1-1.2,3.3-1.1c1.2,0.1,2.3,0.7,3.1,1.6l13.3,15.9c1.6,1.9,1.3,4.7-0.5,6.3l-14.6,12.3C452.5,352.6,451.5,353,450.4,353z
		 M435.6,330.4c-1.3,1.2-1.5,3.2-0.4,4.6l12.6,15.6c0.6,0.7,1.4,1.1,2.3,1.2c0.9,0.1,1.8-0.2,2.5-0.8l14.6-12.3
		c1.4-1.2,1.6-3.3,0.4-4.7l-13.3-15.9c-0.6-0.7-1.4-1.1-2.3-1.2c-0.9-0.1-1.8,0.2-2.5,0.9L435.6,330.4z"/>
	<path d="M381.7,325.6l-0.9-0.7l6.6-8.2c0.4-0.5,0.3-1,0-1.3c-0.3-0.3-0.7-0.5-1.3-0.3l-7.4,3.8c-1,0.5-2.1,0.3-2.7-0.6
		c-0.7-0.8-0.7-2,0-2.8l6.6-7.8c0.4-0.5,0.3-1,0-1.3c-0.3-0.3-0.7-0.6-1.3-0.3l-19.1,9.7l-0.5-1l19.1-9.7c1-0.5,2.1-0.3,2.7,0.6
		c0.7,0.9,0.7,2,0,2.8l-6.6,7.8c-0.4,0.5-0.3,1,0,1.3c0.3,0.3,0.7,0.6,1.3,0.3l7.4-3.8c1-0.5,2-0.3,2.7,0.6c0.7,0.8,0.7,1.9,0,2.8
		L381.7,325.6z"/>
	<rect x="397.5" y="348.8" transform="matrix(0.3477 -0.9376 0.9376 0.3477 -60.3128 612.1375)" width="24.5" height="1.2"/>
	<rect x="430.6" y="342.1" transform="matrix(0.9433 -0.332 0.332 0.9433 -94.0202 163.405)" width="1.2" height="29.6"/>
	<rect x="426.3" y="362.1" transform="matrix(0.9893 -0.1461 0.1461 0.9893 -49.328 66.3261)" width="1.2" height="13.9"/>
	<rect x="407.2" y="361.8" transform="matrix(0.1875 -0.9823 0.9823 0.1875 -20.496 699.9443)" width="11.2" height="1.2"/>
	<rect x="324.1" y="135.2" transform="matrix(0.8789 -0.477 0.477 0.8789 -30.4836 172.591)" width="1.2" height="22.2"/>
	<rect x="320.4" y="146.6" transform="matrix(0.9611 -0.2763 0.2763 0.9611 -29.6427 94.636)" width="1.2" height="11.8"/>
	
		<rect x="306.2" y="146.1" transform="matrix(5.909717e-02 -0.9983 0.9983 5.909717e-02 149.6818 452.265)" width="17.1" height="1.2"/>
	<path d="M283.8,144.8l-1.1-0.3l3-11.2c0.2-0.7,0.8-1.1,1.6-1.1c0.7,0.1,1.3,0.6,1.3,1.4l0.3,6.7c0,0.2,0.1,0.2,0.2,0.3
		c0.1,0,0.2,0,0.3-0.1l4.3-8.5l1,0.5l-4.3,8.5c-0.3,0.6-0.9,0.9-1.6,0.8c-0.7-0.1-1.1-0.7-1.1-1.3l-0.3-6.7c0-0.2-0.2-0.3-0.3-0.3
		c-0.1,0-0.2,0-0.3,0.2L283.8,144.8z"/>
	<rect x="411.7" y="79.3" transform="matrix(0.1574 -0.9875 0.9875 0.1574 260.511 481.2634)" width="1.2" height="17.3"/>
	<rect x="412.2" y="86.3" transform="matrix(0.3638 -0.9315 0.9315 0.3638 174.2009 444.9239)" width="1.2" height="17.2"/>
	<rect x="409.9" y="94" transform="matrix(0.758 -0.6523 0.6523 0.758 32.3244 292.5988)" width="1.2" height="17.4"/>
	<path d="M387.8,408.7L387.8,408.7l-33.4-3.8l0.1-1.2l33.3,3.8c0.8,0,1.2-0.6,1.4-1.1c0.1-0.5,0-1.2-0.7-1.7l-38.4-18.1
		c-1.2-0.7-1.6-2-1.1-3.3c0.5-1.2,1.8-1.9,3.1-1.6l30.5,6.8c0.9,0.2,1.5-0.3,1.7-0.8c0.2-0.5,0.3-1.2-0.4-1.8l-25.5-12.6l0.5-1
		l25.7,12.7c1.2,0.9,1.3,2.3,0.8,3.2c-0.4,1-1.6,1.8-3,1.5l-30.5-6.8c-0.9-0.2-1.5,0.3-1.7,0.9c-0.2,0.5-0.2,1.3,0.6,1.8l38.4,18.1
		c1.1,0.7,1.6,1.8,1.2,3C390.1,408,389.1,408.7,387.8,408.7z"/>
	<path d="M100.4,298.6c-0.1,0-0.2,0-0.4,0c-0.7-0.1-1.4-0.5-1.8-1.1l-3.1-4.7c-0.8-1.2-0.4-2.8,0.7-3.5l4.1-2.7
		c1.2-0.8,2.8-0.5,3.5,0.7l2.8,4.1c0.7,1.1,0.5,2.5-0.5,3.4l-3.8,3.3C101.6,298.4,101,298.6,100.4,298.6z M101.4,287.2
		c-0.3,0-0.5,0.1-0.8,0.2l-4.1,2.7c-0.6,0.4-0.8,1.3-0.4,1.9l3.1,4.7c0.2,0.3,0.6,0.6,1,0.6c0.4,0.1,0.8-0.1,1.1-0.3l3.8-3.3
		c0.5-0.5,0.7-1.3,0.2-1.9l-2.8-4.1C102.3,287.4,101.9,287.2,101.4,287.2z"/>
	<rect x="104.1" y="302.2" transform="matrix(0.6903 -0.7235 0.7235 0.6903 -185.4003 172.4072)" width="9.3" height="1.2"/>
	<rect x="107.3" y="306.6" transform="matrix(0.4435 -0.8963 0.8963 0.4435 -214.5196 268.7937)" width="3.8" height="1.2"/>
	<rect x="107.8" y="304.1" transform="matrix(0.2051 -0.9787 0.9787 0.2051 -207.9481 353.3603)" width="11.6" height="1.2"/>
	<path d="M127.5,308.1C127.4,308.1,127.4,308.1,127.5,308.1c-0.9,0-1.5-0.5-1.8-1.3l-1-3.1l1.1-0.4l1,3.1c0.1,0.4,0.5,0.5,0.6,0.5
		s0.5,0,0.7-0.4l1-2.4c0.2-0.6,0.8-1,1.4-1.1c0.6-0.1,1.2,0.1,1.7,0.5l3.1,3.1c0.3,0.3,0.6,0.2,0.8,0.1c0.2-0.1,0.4-0.4,0.3-0.8
		l-1.4-6.1l1.1-0.3l1.4,6.1c0.2,0.8-0.2,1.6-0.9,2c-0.7,0.4-1.6,0.3-2.2-0.3l-3.1-3.1c-0.2-0.2-0.4-0.2-0.6-0.2
		c-0.2,0-0.4,0.2-0.5,0.4l-1,2.4C128.9,307.6,128.2,308.1,127.5,308.1z"/>
	<rect x="43.8" y="262.7" transform="matrix(0.9459 -0.3246 0.3246 0.9459 -82.8401 29.9134)" width="8.8" height="1.2"/>
	<rect x="45.1" y="266.7" transform="matrix(0.7684 -0.64 0.64 0.7684 -159.9533 92.6657)" width="5.8" height="1.2"/>
	<rect x="47.2" y="269.3" transform="matrix(0.3623 -0.9321 0.9321 0.3623 -218.4017 220.6534)" width="9.6" height="1.2"/>
	<path d="M21.9,239c-0.1,0-0.3,0-0.4,0l-1-0.2l0.3-1.1l1,0.2c0.2,0,0.4,0,0.5-0.1c0.2-0.1,0.3-0.3,0.3-0.5l0.1-0.8
		c0.1-0.5,0.4-1,0.8-1.3c0.4-0.3,1-0.4,1.5-0.3l2,0.5c0.2,0.1,0.4,0,0.6-0.1c0.2-0.1,0.3-0.4,0.2-0.6l-0.1-1.1
		c-0.1-0.6,0.2-1.2,0.6-1.6s1-0.5,1.6-0.4l1.3,0.3c0.2,0.1,0.4,0,0.6-0.2c0.2-0.1,0.3-0.4,0.2-0.6c-0.1-0.6,0.2-1.3,0.7-1.6
		c0.5-0.4,1.2-0.5,1.8-0.3l1.5,0.6l-0.4,1.1l-1.5-0.6c-0.2-0.1-0.5-0.1-0.7,0.1c-0.2,0.1-0.3,0.4-0.3,0.6c0.1,0.6-0.2,1.2-0.6,1.6
		s-1.1,0.5-1.6,0.4l-1.3-0.3c-0.2,0-0.4,0-0.6,0.1c-0.2,0.1-0.3,0.4-0.2,0.6l0.1,1.1c0.1,0.6-0.2,1.2-0.6,1.6
		c-0.5,0.4-1.1,0.5-1.6,0.4l-2-0.5c-0.2,0-0.4,0-0.5,0.1c-0.2,0.1-0.3,0.3-0.3,0.5l-0.1,0.8c-0.1,0.5-0.3,1-0.8,1.3
		C22.7,238.9,22.3,239,21.9,239z"/>
	<path d="M403,48.7C403,48.7,403,48.7,403,48.7c-0.6,0-1.2-0.4-1.4-0.9l-0.9-2.2c-0.1-0.2-0.2-0.2-0.3-0.2c0,0,0,0,0,0
		c-0.1,0-0.2,0-0.3,0.2l-1.1,2.6l-1.1-0.4l1.1-2.6c0.2-0.6,0.8-0.9,1.4-1c0,0,0,0,0,0c0.6,0,1.1,0.4,1.4,0.9l0.9,2.2
		c0.1,0.2,0.2,0.2,0.3,0.2c0.1,0,0.2,0,0.3-0.2L404,46c0.2-0.5,0.7-0.8,1.2-0.8c0.5-0.1,1,0.1,1.3,0.5l1.1,1.3
		c0.1,0.1,0.3,0.1,0.3,0.1s0.2-0.1,0.3-0.2l0.7-2.3c0.2-0.5,0.5-0.9,1.1-1c0.5-0.1,1,0,1.4,0.4l2.2,2.1c0.1,0.1,0.3,0.1,0.3,0.1
		c0.1,0,0.2-0.1,0.2-0.3l0.4-1.9c0.1-0.5,0.5-0.9,1-1.1c0.5-0.2,1.1-0.1,1.5,0.3l1.6,1.3c0.1,0.1,0.3,0.1,0.3,0.1
		c0.1,0,0.2-0.1,0.2-0.3l0.3-1.9c0.1-0.5,0.5-1,1-1.2c0.5-0.2,1.1-0.1,1.5,0.3c0.2,0.1,0.3,0.1,0.4,0.1c0.1,0,0.2-0.1,0.2-0.3V40
		h1.2v1.3c0,0.6-0.3,1.1-0.9,1.4c-0.6,0.2-1.2,0.1-1.6-0.3c-0.1-0.1-0.3-0.1-0.3-0.1c-0.1,0-0.2,0.1-0.2,0.3l-0.3,1.9
		c-0.1,0.5-0.4,1-1,1.2c-0.5,0.2-1.1,0.1-1.5-0.3l-1.6-1.3c-0.1-0.1-0.3-0.1-0.3-0.1c-0.1,0-0.2,0.1-0.2,0.3l-0.4,1.9
		c-0.1,0.5-0.5,0.9-1,1.1c-0.5,0.2-1.1,0-1.5-0.3l-2.2-2.1c-0.1-0.1-0.3-0.1-0.3-0.1c-0.1,0-0.2,0.1-0.2,0.2l-0.7,2.3
		c-0.2,0.5-0.6,0.9-1.1,1c-0.5,0.1-1.1-0.1-1.5-0.5l-1.1-1.3c-0.1-0.1-0.2-0.1-0.3-0.1c-0.1,0-0.2,0-0.3,0.2l-0.7,1.4
		C404.1,48.4,403.6,48.7,403,48.7z"/>
	<rect x="403.2" y="38.7" transform="matrix(0.5038 -0.8638 0.8638 0.5038 164.1131 369.6035)" width="1.2" height="6.4"/>
	<rect x="409.3" y="36.1" transform="matrix(0.4856 -0.8742 0.8742 0.4856 175.7011 378.9773)" width="1.2" height="8.3"/>
	<rect x="415.3" y="35.6" transform="matrix(0.4286 -0.9035 0.9035 0.4286 202.491 397.9719)" width="1.2" height="6.6"/>
	<path d="M352.9,492.1l-1.1-0.5l1.8-4.2c0.4-1,1.3-1.8,2.3-2.1c1.1-0.3,2.2-0.1,3.1,0.5l1.9,1.3c0.6,0.5,1.4,0.6,2.2,0.3
		c0.8-0.3,1.3-0.8,1.6-1.6l0.3-1c0.4-1.1,1.3-2,2.4-2.4c1.1-0.3,2.4-0.1,3.3,0.6l1.9,1.5c0.6,0.5,1.5,0.7,2.3,0.4
		c0.8-0.2,1.4-0.8,1.6-1.6l0.5-1.6c0.4-1.1,1.2-2,2.4-2.4c1.1-0.4,2.3-0.2,3.3,0.6l2.2,1.6c0.7,0.5,1.5,0.6,2.3,0.4
		c0.8-0.3,1.4-0.9,1.6-1.6l0.8-2.8c0.4-1.2,1.3-2.1,2.5-2.5c1.2-0.3,2.5,0,3.4,0.8l1.7,1.6c0.6,0.6,1.5,0.8,2.4,0.5
		c0.8-0.3,1.5-0.9,1.7-1.8c0.3-1.3,1.2-2.3,2.5-2.6c1.3-0.4,2.6-0.1,3.5,0.9l2.7,2.6l-0.8,0.8l-2.7-2.6c-0.6-0.6-1.5-0.8-2.4-0.6
		c-0.9,0.3-1.5,0.9-1.7,1.8c-0.3,1.3-1.2,2.2-2.5,2.6c-1.2,0.4-2.6,0.1-3.5-0.8l-1.7-1.6c-0.6-0.6-1.5-0.8-2.3-0.5s-1.5,0.9-1.7,1.7
		l-0.8,2.8c-0.3,1.1-1.2,2-2.3,2.4c-1.1,0.4-2.4,0.2-3.3-0.6l-2.2-1.6c-0.6-0.5-1.5-0.6-2.2-0.4c-0.8,0.2-1.4,0.8-1.6,1.6l-0.5,1.6
		c-0.4,1.1-1.3,2-2.4,2.4c-1.1,0.4-2.4,0.1-3.3-0.6l-1.9-1.5c-0.6-0.5-1.5-0.7-2.2-0.4s-1.4,0.8-1.6,1.6l-0.3,1
		c-0.4,1.1-1.2,2-2.3,2.3c-1.1,0.4-2.3,0.2-3.2-0.5l-1.9-1.3c-0.6-0.4-1.4-0.6-2.1-0.4c-0.7,0.2-1.3,0.7-1.6,1.4L352.9,492.1z"/>
	<path d="M314.8,463.2h-1.2v-5.6c0-0.8-0.4-1.5-1.1-1.9c-0.7-0.4-1.5-0.4-2.1,0l-2.5,1.4c-1,0.6-2.3,0.6-3.3-0.1
		c-1-0.6-1.6-1.7-1.6-2.9v-1.9c0-0.7-0.4-1.4-1-1.8c-0.6-0.4-1.3-0.5-2-0.2l-3.2,1.3c-1,0.4-2.2,0.3-3.1-0.3
		c-0.9-0.6-1.5-1.7-1.5-2.8v-0.6c0-0.7-0.3-1.4-1-1.8c-0.6-0.4-1.3-0.5-2-0.2l-3,1.2c-1,0.4-2.2,0.3-3.1-0.3
		c-0.9-0.6-1.5-1.6-1.5-2.8c0-0.7-0.4-1.4-1-1.8c-0.6-0.4-1.4-0.5-2-0.2l-2.4,1c-0.9,0.4-1.9,0.3-2.8-0.1c-0.9-0.4-1.5-1.3-1.7-2.2
		l-0.3-1.3c-0.1-0.6-0.6-1.2-1.1-1.4c-0.6-0.3-1.2-0.3-1.8,0l-4.2,1.8l-0.5-1.1l4.2-1.8c0.9-0.4,1.9-0.4,2.8,0.1
		c0.9,0.4,1.5,1.3,1.7,2.2l0.3,1.3c0.1,0.6,0.5,1.1,1.1,1.4c0.6,0.3,1.2,0.3,1.8,0.1l2.4-1c1-0.4,2.2-0.3,3.1,0.3
		c0.9,0.6,1.5,1.7,1.5,2.8c0,0.7,0.3,1.4,1,1.8s1.3,0.5,2,0.2l3-1.2c1-0.4,2.2-0.3,3.1,0.3c0.9,0.6,1.5,1.6,1.5,2.8v0.6
		c0,0.7,0.4,1.4,1,1.8c0.6,0.4,1.3,0.5,2,0.2l3.2-1.3c1-0.4,2.2-0.3,3.1,0.3c0.9,0.6,1.5,1.7,1.5,2.8v1.9c0,0.8,0.4,1.5,1.1,1.9
		c0.7,0.4,1.5,0.4,2.1,0l2.5-1.4c1-0.6,2.3-0.6,3.3,0.1c1,0.6,1.6,1.7,1.6,2.9L314.8,463.2L314.8,463.2z"/>
	<g>
		<g>
			<path d="M446,284.2c-5.4,8.8-19.8,13.3-26.7,3.9c-7.8-10.5-2.2-32.7,13.9-33.6c3.7-0.2,7.4,1,10.3,3.4
				C450.9,264,452.1,274.4,446,284.2z"/>
		</g>
	</g>
	<g>
		<g>
			<path class="st6" d="M427.6,272.6c-2,6.1-4.3,12.9-7.1,9.4c-1.8-2.2-2.9-7.4-1.6-12.3c1-3.9,3.8-7.6,6.6-9.6
				c1.4-1,2.9-1.2,4.1-0.6C432.4,261.1,429.8,265.8,427.6,272.6z"/>
		</g>
	</g>
	<g>
		<g>
			<path class="st6" d="M315.5,102.3c-3,3.2-6.4,6.7-7.7,3.1c-0.9-2.3-0.5-6.3,1.7-9c1.7-2.2,4.7-3.4,7.4-3.4c1.4,0,2.5,0.5,3.3,1.4
				C322,96.8,318.8,98.7,315.5,102.3z"/>
		</g>
	</g>
	<g>
		<g>
			<path class="st6" d="M119.8,278.2c0-2.1,0.1-4.4,1.7-3.6c1,0.5,2.9,4.7,0.7,7.3c-0.4,0.5-1,0.6-1.6,0.5
				C119.3,282.3,119.8,280.6,119.8,278.2z"/>
		</g>
	</g>
	<g>
		<g>
			<path d="M161.8,332.7c0.3-0.5-0.2-1.1-1.3-1.5c-2.2-0.8-6.6-1.4-15-0.8c-7.8,0.5-11.7,2.2-13.6,3.6c-1,0.8-1,1.3,0,1.7
				C143.6,337.7,155.7,336.1,161.8,332.7z"/>
		</g>
	</g>
	<path d="M366.2,282.7c-1-4.3-3.7-17.7-3.7-17.8l1.1-0.2c0,0.1,2.7,13.5,3.7,17.8L366.2,282.7z"/>
	<path d="M378,284.1c-1.2-1.7-2.3-4.1-2.9-6.4c-0.2-0.8-0.4-1.6-0.6-2.3c-1-3.8-1.8-6.8-3.6-8.5l0.8-0.9c2.1,2,3,5.1,4,9.1
		c0.2,0.7,0.4,1.5,0.6,2.3c0.6,2.2,1.6,4.4,2.7,6L378,284.1z"/>
	<path d="M383.5,284.4l-1.2,0c0-0.9-0.1-2.1-0.1-3.4c-0.1-1.3-0.2-2.8-0.2-4.2c0-2.6,0.6-5.1,1.7-6.8l1,0.6c-1,1.5-1.5,3.8-1.5,6.2
		c0,1.4,0.1,2.8,0.2,4.1C383.5,282.2,383.6,283.4,383.5,284.4z"/>
	<path d="M421.4,330.8c-1.2,0-2.5-0.5-3.3-1.5l-9.7-11.4l0.9-0.8l9.7,11.4c1.1,1.3,3.1,1.5,4.5,0.4l29-26.4c1.6-1.4,3.4-2.5,5.3-3.4
		l0.5,1.1c-1.8,0.8-3.5,1.9-5,3.2l-29,26.4C423.3,330.5,422.3,330.8,421.4,330.8z"/>
	<path d="M423.3,381.6c-5,0-10.2-2.2-14.8-7.9l-11.2-12.4l0.9-0.8l11.2,12.4c8.2,10.4,18.9,8.3,25.5,3.4
		c5.3-3.9,12.7-10.2,21.9-18.7l0.8,0.9c-9.3,8.5-16.7,14.8-22,18.7C432.2,379.8,427.8,381.6,423.3,381.6z"/>
	<path d="M350.6,286.2c-0.6-1.1-1.2-2.3-1.7-3.7l1.1-0.4c0.5,1.4,1,2.4,1.7,3.5L350.6,286.2z"/>
	<path d="M357.5,284.1c-0.9-1.8-2.7-5.4-4-10.1l1.1-0.3c1.2,4.5,3,8.1,3.9,9.8L357.5,284.1z"/>
	<path d="M438,301.3c-9.4,0-18.1-5.2-22.6-13.5l1-0.6c4.3,7.9,12.6,12.8,21.6,12.8V301.3z"/>
	<path d="M279.8,125.6c-0.9,0-2.1-0.5-3.3-1.5c-1.3-1.1-3.4-2.7-5.1-4.1l0.7-0.9c1.7,1.4,3.7,3,5.1,4.1c1.2,1,2.5,1.4,3,1.1
		c0.5-0.3,0.6-1.3,0.3-2.8c-0.3-1.8-0.3-3.2,0.3-4.3l1,0.5c-0.3,0.6-0.5,1.6-0.2,3.6c0.4,2.1,0.1,3.5-0.9,4.1
		C280.6,125.5,280.2,125.6,279.8,125.6z"/>
	<path d="M322.5,132l-0.8-0.8l15.6-16c5.5-5.6,14.4-5.9,20.2-0.7l-0.8,0.9c-5.4-4.8-13.6-4.5-18.6,0.6L322.5,132z"/>
	<rect x="338.6" y="142.7" transform="matrix(0.7054 -0.7088 0.7088 0.7054 1.4984 290.173)" width="22.5" height="1.2"/>
	<path d="M106.3,286.3l-3.6-5.3c-1.3-1.7-3.1-2.7-5.2-3c-2.1-0.3-4.2,0.3-5.8,1.6l-0.7-0.9c1.9-1.5,4.3-2.2,6.7-1.8s4.5,1.6,6,3.5
		l3.6,5.3L106.3,286.3z"/>
	
		<rect x="119.3" y="320.8" transform="matrix(5.080045e-02 -0.9987 0.9987 5.080045e-02 -201.2742 430.9361)" width="13.6" height="1.2"/>
	<rect x="162.7" y="297.6" transform="matrix(0.9697 -0.2444 0.2444 0.9697 -70.6463 49.2775)" width="1.2" height="23.3"/>
</g>
</svg>
