<?xml version="1.0" encoding="utf-8"?>
<!-- Generator: Adobe Illustrator 25.1.0, SVG Export Plug-In . SVG Version: 6.00 Build 0)  -->
<svg version="1.1" id="Layer_1" xmlns="http://www.w3.org/2000/svg" xmlns:xlink="http://www.w3.org/1999/xlink" x="0px" y="0px"
	 viewBox="0 0 1920 1080" style="enable-background:new 0 0 1920 1080;" xml:space="preserve">
<style type="text/css">
	.st0{fill:#3F3D56;}
	.st1{fill:#CCCCCC;}
	.st2{fill:#FFB8B8;}
	.st3{fill:#F9A826;}
	.st4{fill:#2F2E41;}
	.st5{fill:#E6E6E6;stroke:#000000;stroke-width:2;stroke-miterlimit:10;}
	.st6{fill:#F9A826;stroke:#000000;stroke-width:2;stroke-miterlimit:10;}
	.st7{fill:#3F3D56;stroke:#000000;stroke-width:2;stroke-miterlimit:10;}
	.st8{fill:#FFFFFF;}
	.st9{fill:#6AA350;}
	.st10{fill:#8CCC71;}
	.st11{fill:#606060;}
</style>
<path class="st0" d="M941.8,666.7l-303.5,64c-18.3,3.8-36.2-7.8-40-26.1l-52.3-247.2c-3.8-18.3,7.8-36.2,26.1-40l303.5-64
	c18.3-3.8,36.2,7.8,40,26.1l52.3,247C971.8,644.9,960.1,662.8,941.8,666.7z M573,421.3c-16.1,3.4-26.5,19.3-23.1,35.4L602,703.9
	c3.4,16.1,19.3,26.5,35.4,23.1L941,663c16.1-3.4,26.5-19.3,23.1-35.4l-52.1-247.2c-3.4-16.1-19.3-26.5-35.4-23.1L573,421.3z"/>
<path id="ea648e8d-1b31-4ae2-9566-f54bfd0d94c9" class="st1" d="M856.8,434.8L703.7,467c-2.8,0.6-5.6-1-6.4-3.8s1-5.6,3.8-6.4h0.2
	l155.9-32.8C863.2,427.5,861.4,433.8,856.8,434.8L856.8,434.8z"/>
<path id="b4f9d9e0-1a47-44a2-8a19-0d88a6e9c18f" class="st1" d="M862.6,461.7l-153.2,32.2c-2.8,0.6-5.6-1-6.4-3.8
	c-0.8-2.8,1-5.6,3.8-6.4h0.2L863,450.9C869,454.3,867,460.9,862.6,461.7L862.6,461.7z"/>
<path id="e168965a-63e1-4676-8cbb-3e09d33a4a3f" class="st1" d="M679.4,516.4l-46.7,9.9c-3.2,0.6-6.4-1.4-7-4.6l-11.5-55.1
	c-0.6-3.2,1.4-6.4,4.6-7l46.7-9.9c3.2-0.6,6.4,1.4,7,4.6l11.5,55.1C684.6,512.6,682.6,515.6,679.4,516.4L679.4,516.4z"/>
<path id="af0ff97e-1a3a-4f6f-a511-2c807a938985" class="st1" d="M873.8,516.8l-233.9,49.3c-2.8,0.6-5.6-1-6.4-3.8s1-5.6,3.8-6.4h0.2
	L874.2,506C880.1,509.6,878.1,516,873.8,516.8L873.8,516.8z"/>
<path id="e60f2d91-ad3b-421b-94cb-3aa0f5092f21" class="st1" d="M879.3,543.8l-233.9,49.3c-2.8,0.6-5.6-1-6.4-3.8
	c-0.8-2.8,1-5.6,3.8-6.4h0.2l236.7-49.9C885.7,536.5,883.9,542.8,879.3,543.8L879.3,543.8z"/>
<path id="a5554f8b-57e8-4c3b-815c-c76cc46b61b5" class="st1" d="M885.1,570.7L651.2,620c-2.8,0.6-5.6-1-6.4-3.8s1-5.6,3.8-6.4h0.2
	l236.7-49.9C891.5,563.3,889.5,569.7,885.1,570.7z"/>
<path id="eee68bf7-fbe9-4bfc-85ae-b0141fb14f45" class="st1" d="M890.7,597.5l-233.9,49.3c-2.8,0.6-5.6-1-6.4-3.8
	c-0.8-2.8,1-5.6,3.8-6.4h0.2l236.7-49.9C897,590.2,895.2,596.5,890.7,597.5L890.7,597.5z"/>
<path id="b9a7afa1-162f-46e2-88e2-f572ab59fc71" class="st1" d="M896.4,624.4l-233.9,49.3c-2.8,0.6-5.6-1-6.4-3.8s1-5.6,3.8-6.4h0.2
	l236.7-49.9C902.8,617,900.8,623.4,896.4,624.4L896.4,624.4z"/>
<path class="st2" d="M933.6,501.3c-0.6,1-1,2-1.4,3l-95.7,23.7l-16.7-17.3l-29.2,21.7l26.5,33.4c4.4,5.6,11.9,7.6,18.5,4.8
	l103.8-42.4c9.3,6.8,22.3,4.8,29.2-4.4c6.8-9.3,4.8-22.3-4.4-29.2c-9.3-6.8-22.3-4.8-29.2,4.4C934.6,499.9,934,500.7,933.6,501.3
	L933.6,501.3z"/>
<path class="st2" d="M606.8,712.7c11.3-3.6,17.5-15.5,14.1-26.7c-0.4-1.2-0.8-2.4-1.4-3.6l65.8-183.2l-45.7-8.2l-50.3,182.6
	c-10.1,6.2-13.5,19.3-7.4,29.4C587.1,711.9,597.5,715.7,606.8,712.7L606.8,712.7z"/>
<path class="st3" d="M677,531.9l-45.2-17.3c-5-2-7.4-7.4-5.6-12.3c0.2-0.4,0.4-0.8,0.6-1.2l23.7-42c5.4-13.7,20.7-20.5,34.4-15.1
	c13.7,5.4,20.5,20.7,15.1,34.4l-10.5,46.9c-1.2,5.2-6.4,8.4-11.3,7.4C678,532.3,677.4,532.1,677,531.9L677,531.9z"/>
<polygon class="st2" points="779.1,1056.6 803.5,1056.6 815.1,962.5 779.1,962.5 "/>
<path class="st4" d="M772.9,1048.7h47.9l0,0c16.9,0,30.6,13.7,30.6,30.6l0,0v1h-78.6V1048.7z"/>
<polygon class="st2" points="641.8,1056.6 666.3,1056.6 677.8,962.5 641.8,962.5 "/>
<path class="st4" d="M635.7,1048.7h47.9l0,0c16.9,0,30.6,13.7,30.6,30.6l0,0v1h-78.6V1048.7z"/>
<path class="st4" d="M667.3,1018.6h-30.8c-5,0-9-4-9-9c0-0.2,0-0.2,0-0.4l14.7-314.9h1l149-4l29.2,315.1c0.4,5-3.2,9.3-8.2,9.7
	c0,0,0,0-0.2,0l-34.6,2.8c-4.6,0.4-8.6-2.8-9.5-7.2l-44.4-224.4c-0.2-1.4-1.6-2.4-3-2.4l0,0c-1.4,0-2.6,1-3,2.4L676,1011.3
	C675.2,1015.6,671.7,1018.6,667.3,1018.6z"/>
<circle class="st2" cx="724" cy="364.6" r="48.9"/>
<path class="st3" d="M707.5,731.4c-23.3,0-47.1-6.2-67-24.3c-2.2-2-3.2-4.8-3-7.6c2.2-19.1,12.3-117.6,6.6-183.2
	c-2.4-24.9,7.2-49.5,25.9-66.2c18.1-16.7,43.2-24.1,67.6-19.5l0,0c0.6,0.2,1.2,0.2,1.8,0.4c39.2,7.6,66.2,43.8,63.3,84.1
	c-4.6,59.1-8.6,138.8-2.2,184c0.6,3.8-1.4,7.6-4.8,9.1C781.3,715.3,745.3,731.4,707.5,731.4z"/>
<path class="st3" d="M771.3,535.5c-2.4-1.6-3.8-4-4.2-6.8l-6-47.7c-4-14.1,4.4-28.8,18.5-32.8c14.1-4,28.6,4.2,32.8,18.3l19.7,44.2
	c2.2,4.8,0,10.5-4.8,12.7c-0.4,0.2-0.8,0.4-1.4,0.4l-46.5,12.9C776.5,537.5,773.5,537.1,771.3,535.5z"/>
<path class="st4" d="M706.9,412.7c-4.6,0-9.1-0.8-13.5-2.4c-2-0.8-3.8-1.4-5.8-2c-16.7-6.4-27.6-24.3-28-42.2s9-35.2,22.7-46.7
	s31.6-17.3,49.3-18.7c19.3-1.4,40.8,3.4,51.5,19.5c2.8,4.2,4.8,9.3,3.2,14.5c-0.6,1.6-1.4,3-2.6,4c-4.8,4.2-9.5,1-14.5,0.8
	c-6.8-0.4-12.7,5-14.9,11.3c-2.2,6.4-1.2,13.3,0.6,19.9c1.4,4,2.2,8,2.6,12.1c0.2,4.2-1.6,8.2-5,10.7c-4.2,2.6-9.7,1-13.9-1.4
	c-4.2-2.4-7.8-6-12.3-8s-10.5-1.4-13.3,2.6c-0.8,1.6-1.4,3.2-1.6,4.8C708.7,402.6,709.3,402,706.9,412.7L706.9,412.7z"/>
<path class="st0" d="M1383.6,413.1h-310.3c-18.7,0-33.8-15.1-33.8-33.8V126.7c0-18.7,15.1-33.8,33.8-33.8h310.3
	c18.7,0,33.8,15.1,33.8,33.8v252.6C1417.4,398,1402.3,413.1,1383.6,413.1z M1073.3,96.8c-16.5,0-29.8,13.3-29.8,29.8v252.6
	c0,16.5,13.3,29.8,29.8,29.8h310.3c16.5,0,29.8-13.3,29.8-29.8V126.7c0-16.5-13.3-29.8-29.8-29.8H1073.3z"/>
<path id="eb40ba0f-f2ca-41e6-ba2e-bd824fb45cdc" class="st1" d="M1348.4,168.6h-156.5c-2.8,0-5.2-2.2-5.6-5c-0.2-3,2-5.4,5-5.6h0.2
	h159.3C1356.1,162.9,1352.9,168.6,1348.4,168.6L1348.4,168.6z"/>
<path id="ea390b26-798a-41d7-8695-eb41cfeb13d4" class="st1" d="M1348.4,196.1h-156.5c-2.8,0-5.2-2.2-5.6-5c-0.2-3,2-5.4,5-5.6h0.2
	h159.3C1356.1,190.3,1352.9,196.1,1348.4,196.1L1348.4,196.1z"/>
<path id="f9b4f79e-9356-48bc-89d8-91f80de67df3" class="st0" d="M1157.8,211.8h-47.7c-3.2,0-6-2.6-6-6v-56.3c0-3.2,2.6-6,6-6h47.7
	c3.2,0,6,2.6,6,6V206C1163.8,209.2,1161,211.8,1157.8,211.8L1157.8,211.8z"/>
<path id="f3294a48-db04-45e1-afc8-dab6eb28e529" class="st1" d="M1347.8,252.4h-238.9c-2.8,0-5.2-2.2-5.6-5c-0.2-3,2-5.4,5-5.6h0.2
	h241.9C1355.5,246.6,1352.3,252.4,1347.8,252.4L1347.8,252.4z"/>
<path id="bb6dba8b-bb0a-4f92-a6ea-c6252f741607" class="st1" d="M1347.8,279.8h-238.9c-2.8,0-5.2-2.2-5.6-5c-0.2-3,2-5.4,5-5.6h0.2
	h241.9C1355.5,274.1,1352.3,279.8,1347.8,279.8z"/>
<path id="b1d451cb-91ad-40cf-876e-6a74c98e5c4f" class="st1" d="M1347.8,307.3h-238.9c-2.8,0-5.2-2.2-5.6-5c-0.2-3,2-5.4,5-5.6h0.2
	h241.9C1355.5,301.5,1352.3,307.3,1347.8,307.3z"/>
<path id="bcef27e7-bcca-4cc4-a6d4-200e9e04132c" class="st1" d="M1347.8,334.9h-238.9c-2.8,0-5.2-2.2-5.6-5c-0.2-3,2-5.4,5-5.6h0.2
	h241.9C1355.5,329,1352.3,334.9,1347.8,334.9L1347.8,334.9z"/>
<path id="ed29f808-f3a3-4ac8-bd45-563f73aa9d8b" class="st1" d="M1347.8,362.4h-238.9c-2.8,0-5.2-2.2-5.6-5c-0.2-3,2-5.4,5-5.6h0.2
	h241.9C1355.5,356.4,1352.3,362.4,1347.8,362.4z"/>
<path class="st3" d="M1315.9,67c5.6,0,9.9,4.4,9.9,9.9v31.8c0,5.6-4.4,9.9-9.9,9.9h-175c-5.6,0-9.9-4.4-9.9-9.9V76.9
	c0-5.6,4.4-9.9,9.9-9.9"/>
<path class="st0" d="M1845.2,660.4h-310.3c-18.7,0-33.8-15.1-33.8-33.8V374c0-18.7,15.1-33.8,33.8-33.8h310.3
	c18.7,0,33.8,15.1,33.8,33.8v252.6C1879,645.3,1863.9,660.4,1845.2,660.4z M1534.9,344.1c-16.5,0-29.8,13.3-29.8,29.8v252.6
	c0,16.5,13.3,29.8,29.8,29.8h310.3c16.5,0,29.8-13.3,29.8-29.8V374c0-16.5-13.3-29.8-29.8-29.8H1534.9z"/>
<path class="st3" d="M1777.5,366h-175c-5.6,0-9.9-4.4-9.9-9.9v-31.8c0-5.6,4.4-9.9,9.9-9.9h175c5.6,0,9.9,4.4,9.9,9.9v31.8
	C1787.5,361.6,1782.9,366,1777.5,366z"/>
<circle class="st5" cx="1589" cy="439.4" r="8.2"/>
<circle class="st5" cx="1623.2" cy="439.4" r="8.2"/>
<circle class="st6" cx="1657.4" cy="439.4" r="8.2"/>
<circle class="st6" cx="1691.6" cy="439.4" r="8.2"/>
<circle class="st6" cx="1725.8" cy="439.4" r="8.2"/>
<circle class="st5" cx="1759.8" cy="439.4" r="8.2"/>
<circle class="st5" cx="1794" cy="439.4" r="8.2"/>
<circle class="st5" cx="1589" cy="465.5" r="8.2"/>
<circle class="st5" cx="1623.2" cy="465.5" r="8.2"/>
<circle class="st5" cx="1657.4" cy="465.5" r="8.2"/>
<circle class="st5" cx="1691.6" cy="465.5" r="8.2"/>
<circle class="st5" cx="1725.8" cy="465.5" r="8.2"/>
<circle class="st5" cx="1759.8" cy="465.5" r="8.2"/>
<circle class="st5" cx="1794" cy="465.5" r="8.2"/>
<circle class="st6" cx="1589" cy="491.3" r="8.2"/>
<circle class="st6" cx="1623.2" cy="491.3" r="8.2"/>
<circle class="st6" cx="1657.4" cy="491.3" r="8.2"/>
<circle class="st5" cx="1691.6" cy="491.3" r="8.2"/>
<circle class="st5" cx="1725.8" cy="491.3" r="8.2"/>
<circle class="st5" cx="1759.8" cy="491.3" r="8.2"/>
<circle class="st5" cx="1794" cy="491.3" r="8.2"/>
<circle class="st5" cx="1589" cy="517.4" r="8.2"/>
<circle class="st5" cx="1623.2" cy="517.4" r="8.2"/>
<circle class="st5" cx="1589" cy="543.2" r="8.2"/>
<circle class="st5" cx="1623.2" cy="543.2" r="8.2"/>
<circle class="st5" cx="1657.4" cy="543.2" r="8.2"/>
<circle class="st5" cx="1657.4" cy="517.4" r="8.2"/>
<circle class="st6" cx="1691.6" cy="517.4" r="8.2"/>
<circle class="st6" cx="1725.8" cy="517.4" r="8.2"/>
<circle class="st6" cx="1759.8" cy="517.4" r="8.2"/>
<circle class="st5" cx="1794" cy="517.4" r="8.2"/>
<path id="a332a05d-d774-4fd2-8531-ab97682a63e9" class="st7" d="M1624.8,389.3c-2.8,0-5,2.4-5,5s2.2,4.8,5,5h124.3
	c2.8,0,5-2.2,5-4.8c0-2.8-2.2-5-4.8-5l0,0h-0.2h-124.3V389.3z"/>
<path class="st5" d="M1777.1,387.9c-0.4,0.4-0.4,1,0,1.4l0,0l4.2,4.2H1771c-0.6,0-1,0.4-1,1c0,0.6,0.4,1,1,1h10.3l-4.2,4.2
	c-0.4,0.4-0.4,1,0,1.4c0.4,0.4,1,0.4,1.4,0l0,0l5.8-5.8c0.4-0.4,0.4-1,0-1.4l-5.8-5.8C1778.1,387.5,1777.5,387.5,1777.1,387.9
	L1777.1,387.9z"/>
<path class="st5" d="M1596.5,387.9c0.4,0.4,0.4,1,0,1.4l0,0l-4.2,4.2h10.3c0.6,0,1,0.4,1,1c0,0.6-0.4,1-1,1l0,0h-10.3l4.2,4.2
	c0.4,0.4,0.4,1,0,1.4c-0.4,0.4-1,0.4-1.4,0l0,0l-5.8-5.8c-0.4-0.4-0.4-1,0-1.4l5.8-5.8C1595.5,387.5,1596.1,387.5,1596.5,387.9
	L1596.5,387.9z"/>
<path class="st5" d="M1622.6,603.9c-9.7,0-17.7,8-17.7,17.7c0,9.7,8,17.7,17.7,17.7l0,0h138c9.7,0,17.7-8,17.7-17.7
	c0-9.7-8-17.7-17.7-17.7l0,0H1622.6z"/>
<path class="st3" d="M1516.4,376.7c-15.7,0-28.6-12.7-28.6-28.6c0-15.7,12.7-28.6,28.6-28.6c15.7,0,28.6,12.7,28.6,28.6
	C1545,363.8,1532.1,376.7,1516.4,376.7z"/>
<path class="st8" d="M1527.7,345.3h-8.4V337c0-1.6-1.2-2.8-2.8-2.8s-2.8,1.2-2.8,2.8v8.4h-8.4c-1.6,0-2.8,1.2-2.8,2.8
	c0,1.6,1.2,2.8,2.8,2.8h8.4v8.4c0,1.6,1.2,2.8,2.8,2.8s2.8-1.2,2.8-2.8v-8.4h8.4c1.6,0,2.8-1.2,2.8-2.8
	C1530.5,346.5,1529.3,345.3,1527.7,345.3z"/>
<path class="st9" d="M125.8,954.8c0,0-172.9-79.6-112.2-134.8C74.4,764.8,125.8,954.8,125.8,954.8z"/>
<path class="st10" d="M122.8,973.4c0,0-79.5-261.1,37.6-248.7C277.4,737.2,122.8,973.4,122.8,973.4z"/>
<path class="st3" d="M64.8,950.2l3.3,43.7l0.1,0.8c0,6.8,0.3,13.6,1,20.4c4.5,44.6,24,64.9,46.7,64.9s41.4-20.3,45.9-64.9
	c0.7-6.8,1-13.6,1-20.4l0-0.6l0-0.1l3.3-43.7H64.8z"/>
<path class="st8" d="M162.9,993.9l0,0.1l0,0.6c0,6.8-0.3,13.6-1,20.4H69.3c-0.7-6.8-1-13.6-1-20.4l-0.1-0.8H162.9z"/>
<path class="st11" d="M416.5,424v-59.4h-9.2V424c-6.3,2.6-9.4,9.7-6.8,16c2.6,6.3,9.7,9.4,16,6.8c6.3-2.6,9.4-9.7,6.8-16
	C422.1,427.7,419.6,425.3,416.5,424z"/>
<path class="st11" d="M438.1,1023.6h-63.1V256.9h-24.6v766.8h-63.1c-31.5,0-57,25.5-57,57v0v0H495v0
	C495,1049.1,469.5,1023.6,438.1,1023.6C438.1,1023.6,438.1,1023.6,438.1,1023.6z"/>
<path class="st3" d="M230.3,370.8h264.6l-16.2-202.2c-1.2-14.5-13.3-25.6-27.8-25.7H274.3c-14.5,0.1-26.6,11.2-27.8,25.7
	L230.3,370.8z"/>
</svg>
