<?xml version="1.0" encoding="utf-8"?>
<!-- Generator: Adobe Illustrator 25.1.0, SVG Export Plug-In . SVG Version: 6.00 Build 0)  -->
<svg version="1.1" id="Layer_1" xmlns="http://www.w3.org/2000/svg" xmlns:xlink="http://www.w3.org/1999/xlink" x="0px" y="0px"
	 viewBox="0 0 24 24" style="enable-background:new 0 0 24 24;" xml:space="preserve">
<circle cx="12" cy="22" r="2"/>
<circle cx="12" cy="2" r="2"/>
<circle cx="22" cy="12" r="2"/>
<circle cx="2" cy="12" r="2"/>
<path d="M19,3c1.1,0,2,0.9,2,2c0,1.1-0.9,2-2,2c-1.1,0-2-0.9-2-2C17,3.9,17.9,3,19,3z"/>
<path d="M19,17c1.1,0,2,0.9,2,2s-0.9,2-2,2c-1.1,0-2-0.9-2-2C17,17.9,17.9,17,19,17z"/>
<path d="M5,3c1.1,0,2,0.9,2,2S6.1,7,5,7C3.9,7,3,6.1,3,5S3.9,3,5,3z"/>
<path d="M5,17c1.1,0,2,0.9,2,2s-0.9,2-2,2c-1.1,0-2-0.9-2-2S3.9,17,5,17z"/>
</svg>
